<svg width="42" height="42" viewBox="0 0 42 42" fill="none" xmlns="http://www.w3.org/2000/svg">
<path d="M14 33.1244C16.1283 34.3531 18.5425 35 21 35C23.4575 35 25.8717 34.3531 28 33.1244C30.1283 31.8956 31.8956 30.1283 33.1244 28C34.3531 25.8717 35 23.4575 35 21C35 18.5425 34.3531 16.1283 33.1244 14C31.8956 11.8717 30.1283 10.1044 28 8.87564C25.8717 7.64689 23.4575 7 21 7C18.5425 7 16.1283 7.64689 14 8.87564" stroke="white"/>
<path d="M3.5 21L3.10957 20.6877L2.85969 21L3.10957 21.3123L3.5 21ZM19.25 21.5C19.5261 21.5 19.75 21.2761 19.75 21C19.75 20.7239 19.5261 20.5 19.25 20.5V21.5ZM10.1096 11.9377L3.10957 20.6877L3.89043 21.3123L10.8904 12.5623L10.1096 11.9377ZM3.10957 21.3123L10.1096 30.0623L10.8904 29.4377L3.89043 20.6877L3.10957 21.3123ZM3.5 21.5H19.25V20.5H3.5V21.5Z" fill="white"/>
</svg>
